<svg xmlns="http://www.w3.org/2000/svg" viewBox="0 0 419 349"><style>.st1{fill:none;stroke:#80b341;stroke-width:3;stroke-linecap:round;stroke-linejoin:round;stroke-miterlimit:10}</style><g style="animation:userCircle-drawIn 2s forwards;animation-delay:.6s" stroke-dasharray="400" stroke-dashoffset="1250"><path class="st1 circlePiece4" d="M161.8 272.4c-4.8-8.6-8.4-18-10.8-28-4.7-19.8-3.7-39.6 2-57.7"/><path class="st1 circlePiece3" d="M283.2 326.1c-31.9 7.5-63.8.3-88.6-17.2"/><path class="st1 circlePiece2" d="M335.9 296.7c-4 4.1-8.4 7.8-13.1 11.3"/><path class="st1 circlePiece1" d="M367.9 223.6c-.9 23.2-9.2 45.1-23.1 63"/><path class="st1" d="M193.9 131.9c8-5.7 17-10.4 26.7-13.8 19.2-6.8 39-8 57.6-4.4"/><ellipse transform="matrix(.06799 -.9977 .9977 .06799 153.657 402.687)" cx="292.4" cy="119.1" rx="4.9" ry="4.9" fill="none" stroke="#80b341" stroke-width="2" stroke-linecap="round" stroke-linejoin="round" stroke-miterlimit="10"/></g></svg>