<svg xmlns="http://www.w3.org/2000/svg" viewBox="0 0 400 400"><style>.st0{fill:#e0edd2}.st4{fill:none;stroke-linecap:round;stroke-miterlimit:10;stroke:#e1ecd3;stroke-width:4}</style><path class="st0" d="M339.9 182.9h-2.5v-2.5c0-.9-.8-1.7-1.7-1.7s-1.7.8-1.7 1.7v2.5h-2.5c-.9 0-1.7.8-1.7 1.7 0 .9.8 1.7 1.7 1.7h2.5v2.5c0 .9.8 1.7 1.7 1.7.4 0 .9-.2 1.2-.5.3-.3.5-.8.5-1.2v-2.5h2.5c.4 0 .9-.2 1.2-.5s.5-.8.5-1.2c0-1-.7-1.7-1.7-1.7z" id="star4"/><path class="st0" d="M291.6 16.2h-3.1v-3.1c0-1.2-1-2.2-2.2-2.2-1.2 0-2.2 1-2.2 2.2v3.1H281c-1.2 0-2.2 1-2.2 2.2s1 2.2 2.2 2.2h3.1v3.1c0 1.2 1 2.2 2.2 2.2.6 0 1.1-.2 1.5-.6.4-.4.6-1 .6-1.5v-3.1h3.1c.6 0 1.1-.2 1.5-.6.4-.4.6-1 .6-1.5.2-1.4-.8-2.4-2-2.4z" id="star3"/><path d="M57.6 54h-3.1v-3.1c0-1.2-1-2.2-2.2-2.2s-2.2 1-2.2 2.2V54H47c-1.2 0-2.2 1-2.2 2.2s1 2.2 2.2 2.2h3.1v3.1c0 1.2 1 2.2 2.2 2.2.6 0 1.1-.2 1.5-.6.4-.4.6-1 .6-1.5v-3.1h3.1c.6 0 1.1-.2 1.5-.6.4-.4.6-1 .6-1.5.2-1.4-.8-2.4-2-2.4z" id="star2" fill="#e1ecd3"/><path class="st0" d="M48.3 183.5h-2v-2c0-.8-.6-1.4-1.4-1.4-.8 0-1.4.6-1.4 1.4v2h-2c-.8 0-1.4.6-1.4 1.4s.6 1.4 1.4 1.4h2v2c0 .8.6 1.4 1.4 1.4.4 0 .7-.2 1-.4.3-.3.4-.6.4-1v-2h2c.4 0 .7-.2 1-.4.3-.3.4-.6.4-1 0-.8-.6-1.4-1.4-1.4z" id="star1"/><g style="animation:mainCircle-drawIn 1.4s forwards;animation-delay:0s" stroke-dasharray="500" stroke-dashoffset="500"><path class="st4" d="M48.6 309.7c-18.2-28-28.8-61.4-28.8-97.3 0-98.8 80.1-178.9 178.9-178.9 36.8 0 71 11.1 99.5 30.2M103.1 363.6c-7.9-5-15.4-10.6-22.4-16.7"/><path d="M368.1 154.5c6.2 18.2 9.6 37.6 9.6 57.9 0 98.8-80.1 178.9-178.9 178.9" fill="none" stroke="#e0edd2" stroke-width="4" stroke-linecap="round" stroke-miterlimit="10"/><circle class="st4" cx="115.3" cy="105.8" r="17.5"/><circle class="st4" cx="89.5" cy="154.5" r="13.1"/></g></svg>